<svg width="26" height="26" viewBox="0 0 26 26" fill="none" xmlns="http://www.w3.org/2000/svg">
<path d="M12.129 0.685059H12.8817C15.9494 0.685059 18.8574 1.98814 21.602 4.59785C23.5336 6.94127 24.5952 9.061 24.787 10.957C24.9325 11.8518 25.0036 12.4234 25.0036 12.6649V13.6946C25.0036 15.3598 24.439 17.2843 23.3063 19.4714C21.6589 22.1699 19.3119 24.0411 16.269 25.0921C14.728 25.4862 13.5208 25.6851 12.6474 25.6851H12.3562C9.16773 25.6851 6.20651 24.3997 3.47607 21.8326C1.15751 19.2655 0 16.2794 0 12.8815V12.7359C0 12.6223 0.0248588 12.5264 0.071017 12.4447C0.071017 12.3879 0.0461582 12.3595 0 12.3595C0.316006 9.95221 0.958675 8.00646 1.92445 6.5223C3.46187 4.02975 5.83014 2.25444 9.02926 1.19635C10.2223 0.855487 11.2555 0.685059 12.129 0.685059ZM10.4318 8.67043L10.5028 10.9606C10.5028 11.0316 10.4318 11.1097 10.2862 11.1914H9.02571V13.7727H10.2862C10.3572 13.7727 10.4318 13.8508 10.5028 14.0035V20.3627L10.5383 20.81H13.1657V13.9289C13.1835 13.8224 13.2297 13.7727 13.3113 13.7727H15.4559C15.5518 13.7727 15.6796 12.9596 15.8323 11.337V11.1914H13.3113C13.2155 11.1914 13.1657 11.1417 13.1657 11.0458V9.26338C13.1657 8.50355 13.6096 8.08458 14.4972 8.00291H15.9743V5.78731C15.9743 5.64174 15.4559 5.57073 14.4227 5.57073H14.0463C12.342 5.57073 11.2307 6.20984 10.7158 7.48452C10.627 7.74727 10.5312 8.14494 10.4318 8.67043Z" fill="#CFCFCF"/>
</svg>
