<svg width="25" height="26" viewBox="0 0 25 26" fill="none" xmlns="http://www.w3.org/2000/svg">
<path d="M11.6141 0.685059H13.393C15.2997 0.685059 17.4655 1.4733 19.8977 3.04623C21.7299 4.47713 23.0578 6.12818 23.8815 7.99936C24.6236 9.78533 24.9964 11.2908 24.9964 12.5193V13.549C24.9964 16.3114 23.8602 19.0489 21.5914 21.7616C18.9604 24.3216 15.9033 25.5998 12.4201 25.5998C8.07413 25.5998 4.52704 23.576 1.77175 19.5318C0.592938 17.3517 0.00354004 15.2071 0.00354004 13.0981C0.00354004 9.62555 1.43444 6.49744 4.2927 3.7102C6.96277 1.69699 9.40206 0.685059 11.6141 0.685059ZM5.84788 11.479V15.3314C5.84788 17.4298 6.5154 18.8323 7.84688 19.5354C8.44339 19.8762 10.3678 20.0005 13.6131 19.9117C16.0985 19.9117 17.5295 19.6419 17.9023 19.0986C18.7438 18.4276 19.1627 17.3162 19.1627 15.7681V10.8115C19.1627 8.85861 18.4739 7.57683 17.0927 6.97323L16.1731 6.67142L15.2393 6.60041H9.84943C7.92854 6.60041 6.64322 7.53778 5.99701 9.40896C5.89759 9.98061 5.84788 10.673 5.84788 11.479ZM10.066 7.78277H15.2393C17.114 7.78277 18.0514 8.7663 18.0514 10.7369V15.9812C17.7993 17.8062 17.0395 18.7187 15.7612 18.7187H13.6167C12.6154 18.7187 11.5573 18.7436 10.4424 18.7897C8.58541 18.7897 7.49892 18.2003 7.18292 17.0215C7.08705 16.3682 7.03734 15.3811 7.03734 14.0674V12.4305C7.03734 9.96641 7.23617 8.73434 7.63029 8.73434C8.02441 8.10233 8.83751 7.78277 10.066 7.78277ZM9.10735 13.3324C9.10735 14.9231 10.0199 16.0309 11.8449 16.6522H13.322C15.0902 16.0131 15.9743 14.884 15.9743 13.2614V13.1052C15.9743 12.1856 15.5056 11.3263 14.5682 10.5239C13.9291 10.08 13.2687 9.85634 12.5799 9.85634H12.5089C10.9821 9.85634 9.92045 10.6446 9.32395 12.2175C9.24583 12.324 9.17127 12.6933 9.10735 13.3324ZM12.5124 11.0316H12.5834C13.6486 11.0316 14.3658 11.5997 14.728 12.7395C14.7777 12.8034 14.799 12.9773 14.799 13.2614C14.5647 14.7882 13.8261 15.5516 12.5834 15.5516C11.5999 15.5516 10.8827 15.058 10.4388 14.0745C10.3749 13.9928 10.3217 13.7478 10.2826 13.336C10.4601 11.7985 11.2022 11.0316 12.5124 11.0316ZM15.3103 9.78178C15.5269 10.2753 15.8038 10.5203 16.1341 10.5203C16.4643 10.5203 16.7341 10.2753 16.9472 9.78178C16.8335 9.18527 16.5353 8.88702 16.0524 8.88702C15.5553 9.03969 15.3103 9.33795 15.3103 9.78178Z" fill="#CFCFCF"/>
</svg>
