<svg width="26" height="26" viewBox="0 0 26 26" fill="none" xmlns="http://www.w3.org/2000/svg">
<path d="M13.239 0.685059H13.7468C16.5234 0.685059 19.2041 1.74315 21.789 3.85932C24.5336 6.64657 25.9077 9.56874 25.9077 12.6294V13.8153C25.9077 15.5906 25.2224 17.6784 23.8483 20.0786C22.1511 22.5001 19.8432 24.1725 16.921 25.0921C15.5647 25.433 14.4321 25.5998 13.5302 25.5998H13.4592C10.0754 25.5998 7.05029 24.2755 4.38732 21.6267C2.12557 19.0418 0.99646 16.2155 0.99646 13.1478C0.99646 9.87054 2.27469 6.87026 4.83469 4.14692C7.49411 1.83901 10.2991 0.685059 13.239 0.685059ZM13.9776 11.0067V11.5997C13.9776 11.6956 13.9243 11.7453 13.8213 11.7453C12.2804 11.5358 10.956 10.9961 9.84818 10.1226L8.8185 9.16397H8.73329C8.73329 9.24563 8.63742 9.44092 8.44213 9.75692V10.641C8.50605 11.1417 8.85046 11.7062 9.47182 12.3382V12.4092C9.13096 12.4092 8.7901 12.3134 8.44213 12.1181V12.1927C8.44213 13.1371 9.0564 13.9502 10.2849 14.6284L10.1393 14.6994H9.77718L9.40081 14.6284V14.774C9.96536 15.8072 10.679 16.3256 11.5454 16.3256V16.5422C10.5761 17.1316 9.61384 17.4263 8.66227 17.4263H8.22555V17.5719C9.61385 18.211 10.8175 18.5305 11.8365 18.5305C13.9669 18.5305 15.7848 17.6713 17.2868 15.9492C18.3697 14.4473 18.9094 13.0235 18.9094 11.6743V11.1665C19.6941 10.4138 20.0882 9.99481 20.0953 9.90605V9.83504C19.8113 9.98061 19.4171 10.1049 18.9094 10.2114L18.8384 10.0552C19.3 9.78888 19.6408 9.41961 19.8681 8.95448V8.88347H19.7935C19.0656 9.23143 18.6253 9.40541 18.4727 9.40541H18.2561C17.7164 8.96158 17.2229 8.71659 16.779 8.66688H16.1861C15.3623 8.66688 14.6983 9.13201 14.1977 10.0587C14.0486 10.2895 13.9776 10.6091 13.9776 11.0067Z" fill="#CFCFCF"/>
</svg>
